# xmcd
#
# Track frame offsets:
#	150
#	18300
#	39180
#	55330
#	74746
#	90946
#	107506
#	128356
#	143206
#	154606
#	170906
#	181095
#	199995
#	222945
#
# Disc length: 3210 seconds
#
# Revision: 0
# Processed by: cddbd v1.5.1PL2 Copyright (c) Steve Scherf et al.
# Submitted via: dBpowerAMP V4.0
#
DISCID=bb0c880e
DTITLE=Gray Wave - Land of Green Ginger
DYEAR=2006
DGENRE=Instrumental Rock
TTITLE0=Don't Know How
TTITLE1=Long Way From Home
TTITLE2=I'm Sitting in the Sun
TTITLE3=Only a Love Song
TTITLE4=Sarah
TTITLE5=Pippi's Alright
TTITLE6=Loved Ones
TTITLE7=Barbara
TTITLE8=Wonderful
TTITLE9=Same Old Story
TTITLE10=Friend of Mine
TTITLE11=Run Away
TTITLE12=Sweet Rock 'n' Roll
TTITLE13=Meanwhile
EXTD=Land of Green Ginger is Gray Wave's second album. A great collection of instrumental rock tracks with the unique and quirky Gray Wave sound.\n
EXTT0=
EXTT1=
EXTT2=
EXTT3=
EXTT4=
EXTT5=
EXTT6=
EXTT7=
EXTT8=
EXTT9=
EXTT10=
EXTT11=
EXTT12=
EXTT13=
PLAYORDER=
